<svg width="60" height="60" viewBox="0 0 60 60" fill="none" xmlns="http://www.w3.org/2000/svg"><path d="M46.13 29.95a.9.9 0 00-.83-.55H34.94l6-24.37a.9.9 0 00-1.52-.83L14.06 29.66a.9.9 0 00.64 1.54h10.36l-6 24.37a.9.9 0 001.52.83l25.36-25.46a.9.9 0 00.19-.99zM21.6 52.85l5.5-22.33a.9.9 0 00-.89-1.12h-9.34L38.4 7.75l-5.48 22.33a.9.9 0 00.87 1.12h9.34L21.6 52.85zm21.04-11.49a.9.9 0 00-1.28 1.28l7.2 7.2a.9.9 0 001.28-1.28l-7.2-7.2zM16.8 18.3a.9.9 0 00.64-1.54l-7.2-7.2a.9.9 0 00-1.28 1.28l7.2 7.2c.17.16.4.26.64.26z" fill="#07B53B"/><path d="M41.06 17.74a.9.9 0 001.28 0l7.2-7.2a.9.9 0 00-1.28-1.28l-7.2 7.2a.9.9 0 000 1.28zm-24.6 23.92l-7.2 7.2a.9.9 0 101.28 1.28l7.2-7.2a.9.9 0 00-1.28-1.28zM11.1 39a1.5 1.5 0 100-3 1.5 1.5 0 000 3zm-5.4-4.2a1.5 1.5 0 100-3 1.5 1.5 0 000 3zm48-7.8a1.5 1.5 0 100-3 1.5 1.5 0 000 3zM18.9 12a1.5 1.5 0 100-3 1.5 1.5 0 000 3z" fill="#07B53B"/></svg>