<svg width="62" height="62" viewBox="0 0 62 62" fill="none" xmlns="http://www.w3.org/2000/svg"><rect width="62" height="62" rx="20" fill="url(#paint0_radial)"/><path d="M24.543 31a6.458 6.458 0 1112.916 0 6.458 6.458 0 11-12.916 0zm-3.491 0c0 5.495 4.454 9.949 9.948 9.949 5.495 0 9.95-4.454 9.95-9.949s-4.455-9.949-9.95-9.949c-5.494 0-9.948 4.454-9.948 9.949zm17.966-10.343a2.325 2.325 0 102.326-2.324 2.326 2.326 0 00-2.326 2.324zM23.173 46.77c-1.889-.086-2.916-.4-3.598-.667-.905-.352-1.55-.771-2.229-1.449a5.977 5.977 0 01-1.449-2.227c-.266-.682-.58-1.709-.666-3.598-.094-2.042-.113-2.656-.113-7.83 0-5.174.02-5.786.113-7.83.086-1.889.403-2.914.666-3.598.352-.904.772-1.55 1.45-2.228a5.97 5.97 0 012.228-1.45c.682-.265 1.709-.58 3.598-.666 2.042-.094 2.656-.113 7.828-.113 5.171 0 5.785.02 7.83.113 1.888.086 2.913.403 3.597.667.905.35 1.55.771 2.229 1.449.679.677 1.097 1.324 1.45 2.228.265.682.58 1.71.666 3.598.094 2.044.112 2.656.112 7.83 0 5.174-.018 5.786-.112 7.83-.086 1.889-.403 2.916-.667 3.598-.352.905-.771 1.55-1.45 2.227-.677.677-1.323 1.097-2.228 1.45-.682.265-1.709.58-3.598.666-2.042.094-2.655.112-7.83.112-5.174 0-5.785-.018-7.827-.112zm-.16-35.029c-2.063.094-3.472.421-4.703.9a9.503 9.503 0 00-3.432 2.235 9.466 9.466 0 00-2.235 3.432c-.48 1.232-.806 2.64-.9 4.703-.096 2.066-.117 2.726-.117 7.988 0 5.262.021 5.922.117 7.988.094 2.063.42 3.471.9 4.703a9.471 9.471 0 002.234 3.432 9.526 9.526 0 003.433 2.235c1.233.479 2.64.806 4.703.9 2.066.094 2.726.117 7.987.117 5.262 0 5.923-.022 7.988-.117 2.063-.094 3.472-.421 4.703-.9a9.527 9.527 0 003.432-2.235 9.472 9.472 0 002.235-3.432c.48-1.232.808-2.64.9-4.703.094-2.068.116-2.726.116-7.988 0-5.262-.022-5.922-.116-7.988-.094-2.063-.42-3.472-.9-4.703a9.527 9.527 0 00-2.235-3.432 9.48 9.48 0 00-3.43-2.235c-1.233-.479-2.642-.807-4.703-.9-2.066-.094-2.726-.117-7.988-.117-5.262 0-5.922.022-7.99.117z" fill="#fff"/><defs><radialGradient id="paint0_radial" cx="0" cy="0" r="1" gradientUnits="userSpaceOnUse" gradientTransform="matrix(34.83331 48.0758 -43.74597 31.69613 6.5 5)"><stop stop-color="#FFE352"/><stop offset=".177" stop-color="#FFA843"/><stop offset=".675" stop-color="#E53299"/><stop offset="1" stop-color="#8956F2"/></radialGradient></defs></svg>