<svg width="40" height="40" viewBox="0 0 40 40" fill="none" xmlns="http://www.w3.org/2000/svg"><rect width="40" height="40" rx="12" fill="#07B53B"/><path d="M28.959 11.01c-2.144-2.208-5.108-3.406-8.135-3.406-6.433 0-11.604 5.234-11.54 11.604 0 2.018.567 3.973 1.513 5.739l-1.64 5.99 6.117-1.576c1.703.946 3.595 1.387 5.487 1.387 6.37 0 11.54-5.234 11.54-11.603 0-3.09-1.198-5.991-3.342-8.136zm-8.135 17.783c-1.703 0-3.406-.441-4.856-1.324l-.379-.19-3.657.947.946-3.595-.252-.378c-2.775-4.478-1.45-10.406 3.09-13.18 4.54-2.775 10.405-1.45 13.18 3.09 2.775 4.54 1.45 10.405-3.09 13.18-1.45.946-3.216 1.45-4.982 1.45zm5.55-7l-.694-.315s-1.01-.441-1.64-.757c-.063 0-.126-.063-.19-.063a.91.91 0 00-.44.126s-.064.063-.947 1.072a.347.347 0 01-.315.19h-.063a.478.478 0 01-.252-.127l-.316-.126c-.693-.315-1.324-.693-1.828-1.198-.127-.126-.316-.252-.442-.378-.441-.442-.883-.946-1.198-1.514l-.063-.126c-.063-.063-.063-.126-.126-.252 0-.126 0-.252.063-.316 0 0 .252-.315.441-.504.126-.126.19-.315.316-.441.126-.19.189-.442.126-.631-.063-.315-.82-2.018-1.01-2.396-.125-.19-.252-.253-.44-.316h-.694c-.127 0-.253.063-.379.063l-.063.063c-.126.063-.252.19-.378.253-.126.126-.19.252-.316.378a3.216 3.216 0 00-.693 1.955c0 .505.126 1.009.315 1.45l.063.19a10.504 10.504 0 002.333 3.216l.253.252c.189.19.378.315.504.505 1.325 1.135 2.838 1.954 4.54 2.396.19.063.442.063.631.126h.631c.315 0 .694-.126.946-.252.19-.126.315-.126.441-.252l.127-.127c.126-.126.252-.189.378-.315s.252-.252.315-.378c.126-.253.19-.568.253-.883v-.442s-.064-.063-.19-.126z" fill="#fff"/></svg>