<svg width="559" height="582" viewBox="0 0 559 582" fill="none" xmlns="http://www.w3.org/2000/svg"><path fill-rule="evenodd" clip-rule="evenodd" d="M284.093 22.582c0-3.81 2.448-7.248 3.589-10.884A9.009 9.009 0 00288.093 9a9 9 0 10-17.588 2.698c1.141 3.636 3.588 7.073 3.588 10.884V29a5 5 0 1010 0v-6.418zm0 536.836c0 3.811 2.448 7.248 3.589 10.883.267.852.411 1.759.411 2.699a9 9 0 11-17.588-2.699c1.141-3.635 3.588-7.072 3.588-10.883V553a5 5 0 1110 0v6.418zm-166.778-54.172c-2.239 3.083-6.239 4.426-9.299 6.697a9 9 0 1013.898 10.094c1.213-3.612 1.253-7.832 3.492-10.915l3.772-5.193a5 5 0 00-1.108-6.984 4.998 4.998 0 00-6.983 1.108l-3.772 5.193zM432.78 70.878c2.239-3.083 2.279-7.303 3.492-10.915.284-.846.7-1.664 1.253-2.425a8.999 8.999 0 0112.57-1.993 9 9 0 01.075 14.512c-3.059 2.27-7.06 3.614-9.299 6.697l-3.771 5.193a5 5 0 01-8.092-5.876l3.772-5.193zm8.091 434.368c2.239 3.083 6.24 4.426 9.299 6.697a9 9 0 01-.075 14.512 8.999 8.999 0 01-12.57-1.993 8.984 8.984 0 01-1.253-2.425c-1.213-3.612-1.253-7.832-3.492-10.915l-3.772-5.193a5 5 0 118.092-5.876l3.771 5.193zM125.406 70.878c-2.239-3.083-2.279-7.303-3.492-10.915a9 9 0 10-13.898 10.094c3.06 2.27 7.06 3.614 9.299 6.697l3.772 5.193a5 5 0 108.091-5.876l-3.772-5.193zm410.085 299.705c3.618 1.197 7.65-.047 11.46.012a9 9 0 11-5.397 16.307c-3.093-2.225-5.587-5.629-9.204-6.826l-6.094-2.016a5.001 5.001 0 013.142-9.494l6.093 2.017zM25.837 201.924c-3.618-1.197-6.112-4.601-9.205-6.826a9 9 0 10-5.397 16.307c3.81.059 7.843-1.185 11.46.012l6.093 2.017a5 5 0 003.142-9.494l-6.093-2.016zm-3.142 168.659c-3.617 1.197-7.65-.047-11.46.012a9 9 0 105.397 16.307c3.093-2.225 5.587-5.629 9.205-6.826l6.093-2.016a5.001 5.001 0 00-3.142-9.494l-6.093 2.017zM532.35 201.924c3.617-1.197 6.111-4.601 9.204-6.826a9 9 0 115.397 16.307c-3.81.059-7.842-1.185-11.46.012l-6.093 2.017a5.001 5.001 0 01-3.142-9.494l6.094-2.016z" fill="#FCFCFD"/><circle cx="279.093" cy="291" r="260" fill="#2F1433"/><path d="M539.093 291c0 28.433-4.564 55.801-13 81.41l-247-81.41 247-81.411c8.436 25.609 13 52.977 13 81.411z" fill="#673AB7"/><path d="M415.343 289.512c.804.276 1.452.726 1.944 1.35.492.612.738 1.338.738 2.178 0 1.32-.444 2.352-1.332 3.096-.888.744-1.974 1.116-3.258 1.116-.996 0-1.89-.228-2.682-.684-.78-.456-1.356-1.128-1.728-2.016l2.484-1.44c.312.888.954 1.332 1.926 1.332.564 0 .99-.132 1.278-.396.288-.264.432-.6.432-1.008 0-.408-.144-.744-.432-1.008-.288-.264-.714-.396-1.278-.396h-.594l-1.098-1.638 2.286-2.898h-4.608v-2.7h8.1v2.34l-2.178 2.772zm8.74-.126c-.588.588-1.326.882-2.214.882-.888 0-1.632-.294-2.232-.882-.6-.6-.9-1.326-.9-2.178 0-.852.3-1.572.9-2.16.6-.6 1.344-.9 2.232-.9.888 0 1.626.294 2.214.882.6.576.9 1.302.9 2.178 0 .852-.3 1.578-.9 2.178zm-3.852 5.634l8.136-9 1.188.684-8.136 9.018-1.188-.702zm.936-7.11c.18.192.408.288.684.288a.897.897 0 00.684-.288.995.995 0 00.288-.702c0-.288-.09-.522-.27-.702a.918.918 0 00-.702-.288.897.897 0 00-.684.288.989.989 0 00-.27.702c0 .276.09.51.27.702zm9.342 8.424c-.588.588-1.326.882-2.214.882-.888 0-1.632-.294-2.232-.882-.6-.6-.9-1.326-.9-2.178 0-.852.3-1.572.9-2.16.6-.6 1.344-.9 2.232-.9.888 0 1.626.3 2.214.9.6.588.9 1.308.9 2.16 0 .852-.3 1.578-.9 2.178zm-2.916-1.476c.18.192.408.288.684.288a.897.897 0 00.684-.288.995.995 0 00.288-.702c0-.288-.09-.522-.27-.702a.918.918 0 00-.702-.288.897.897 0 00-.684.288.989.989 0 00-.27.702c0 .276.09.51.27.702zm20.775.504c-1.272 1.26-2.82 1.89-4.644 1.89-1.824 0-3.372-.63-4.644-1.89-1.272-1.26-1.908-2.814-1.908-4.662 0-1.848.636-3.402 1.908-4.662 1.272-1.26 2.82-1.89 4.644-1.89 1.824 0 3.372.63 4.644 1.89 1.272 1.26 1.908 2.814 1.908 4.662 0 1.848-.636 3.402-1.908 4.662zm-7.272-1.962c.708.696 1.584 1.044 2.628 1.044s1.914-.348 2.61-1.044c.708-.696 1.062-1.596 1.062-2.7s-.354-2.004-1.062-2.7c-.696-.696-1.566-1.044-2.61-1.044-1.044 0-1.92.348-2.628 1.044-.696.696-1.044 1.596-1.044 2.7s.348 2.004 1.044 2.7zm18.452-6.228h-4.77v2.43h4.68v2.772h-4.68V297h-2.88v-12.6h7.65v2.772zm9.351 0h-4.77v2.43h4.68v2.772h-4.68V297h-2.88v-12.6h7.65v2.772zM432.093 80.761c43.512 31.72 76.802 76.619 94 128.829l-247 81.41 153-210.239z" fill="#FCFCFD"/><path d="M381.871 224.248c-1.037.757-2.067 1.167-3.091 1.231a4.621 4.621 0 01-2.816-.774l1.157-2.628c1.093.643 2.149.593 3.166-.15.921-.672 1.18-1.285.776-1.837-.219-.301-.539-.424-.96-.369-.418.038-1.116.243-2.092.614-.512.195-.98.337-1.406.425-.426.089-.879.13-1.359.123a3.033 3.033 0 01-1.356-.391c-.417-.246-.795-.601-1.135-1.066-.687-.94-.901-1.935-.643-2.986.268-1.057.867-1.925 1.798-2.605.833-.609 1.715-.948 2.645-1.018.922-.079 1.84.12 2.753.597l-1.123 2.582c-.468-.254-.908-.378-1.321-.374-.42-.005-.852.155-1.298.481-.349.255-.564.53-.644.827-.078.28-.039.526.116.739.184.252.46.385.827.4.377.007 1.019-.151 1.928-.473.499-.171.889-.299 1.168-.384.28-.086.656-.16 1.13-.224.476-.08.876-.082 1.199-.006.326.059.677.204 1.053.435.379.213.72.528 1.025.945.707.969.918 1.99.63 3.061-.294 1.062-1.003 2.004-2.127 2.825zm1.143-16.75c.998-.729 2.089-1.005 3.272-.829 1.184.176 2.129.748 2.837 1.717.708.969.965 2.044.773 3.225-.193 1.181-.788 2.136-1.787 2.865l-1.526 1.114 2.336 3.198-2.326 1.699-7.431-10.175 3.852-2.814zm3.503 4.797c.359-.262.562-.603.611-1.025.048-.422-.062-.817-.331-1.185-.269-.369-.611-.594-1.028-.676a1.43 1.43 0 00-1.163.27l-1.526 1.114 1.911 2.617 1.526-1.115zm1.219-8.245l2.326-1.699 7.431 10.176-2.326 1.698-7.431-10.175zm9.743-7.116l2.326-1.698 7.431 10.175-1.744 1.274-7.959-2.658 4.034 5.524-2.326 1.699-7.431-10.176 1.744-1.273 7.959 2.657-4.034-5.524zm13.372-9.766l2.326-1.698 7.431 10.175-1.744 1.274-7.959-2.657 4.034 5.523-2.326 1.699-7.431-10.175 1.744-1.274 7.959 2.657-4.034-5.524zm19.14-.403c-.284 1.767-1.163 3.189-2.636 4.265-1.473 1.076-3.095 1.48-4.865 1.212-1.77-.267-3.2-1.147-4.29-2.639-1.09-1.493-1.493-3.123-1.209-4.89.284-1.768 1.163-3.19 2.636-4.266 1.473-1.075 3.094-1.479 4.865-1.212 1.77.267 3.2 1.147 4.29 2.639 1.09 1.493 1.493 3.123 1.209 4.891zm-7.03 2.704c.982.145 1.895-.091 2.738-.707s1.34-1.41 1.492-2.382c.161-.98-.084-1.915-.735-2.807-.651-.892-1.467-1.41-2.45-1.554-.972-.152-1.88.08-2.723.696s-1.346 1.414-1.507 2.393c-.151.973.098 1.905.75 2.796.651.892 1.462 1.413 2.435 1.565zm12.485-4.66l-10.237-8.126 2.442-1.784 6.961 5.838-3.24-8.556 1.89-1.38 7.164 5.69-3.443-8.407 2.443-1.784 4.625 12.224-2.645 1.933-6.042-4.794 2.727 7.214-2.645 1.932z" fill="#2A313D"/><path d="M279.093 291V31c57.192 0 110.071 18.466 153 49.761L279.093 291z" fill="#673AB7"/><path d="M311.266 170.935l2.632.87-1.016 3.076 9.332 3.083-.904 2.735-9.331-3.083-1.017 3.076-2.632-.869 2.936-8.888zm14.438-3.534l-4.677.957-.429 1.299 3.931 1.299-.903 2.735-11.964-3.953 1.581-4.786c.376-1.139 1.095-1.976 2.156-2.51 1.061-.534 2.161-.613 3.301-.236.729.241 1.339.67 1.83 1.287a4.33 4.33 0 01.911 2.064l5.234-1.096-.971 2.94zm-10.575.449l3.076 1.017.678-2.051c.124-.376.081-.744-.128-1.104-.206-.372-.526-.629-.959-.772-.433-.143-.842-.126-1.229.049a1.298 1.298 0 00-.761.81l-.677 2.051zm3.115-18.036l6.039 6.451 4.598 1.518-.904 2.735-4.597-1.519-8.694 1.583 1.028-3.111 5.366-.748-3.864-3.798 1.028-3.111zm16.226-8.949l-2.078-.023-1.468 4.444 1.683 1.219-.988 2.991-10.621-8.02 1.152-3.487 13.308-.115-.988 2.991zm-5.838 2.753l.926-2.803-4.856-.049 3.93 2.852zm4.267-20.377l1.025.339c1.789.591 3.035 1.622 3.737 3.092.695 1.455.76 3.038.195 4.747-.614 1.857-1.722 3.203-3.325 4.039-1.599.824-3.27.948-5.014.372-1.743-.576-3.019-1.667-3.828-3.274-.805-1.618-.917-3.305-.338-5.06.369-1.116.957-2.053 1.763-2.811.81-.768 1.71-1.274 2.7-1.515l.565 2.765c-.497.126-.963.408-1.398.846-.432.426-.755.964-.969 1.613-.335 1.014-.278 1.969.173 2.863.453.883 1.205 1.498 2.253 1.844 1.037.342 1.999.281 2.885-.184.876-.469 1.502-1.274 1.878-2.413.523-1.584.245-2.807-.835-3.669l-1.056 3.196-2.393-.791 1.982-5.999zm9.544-6.511l-2.078-.023-1.468 4.444 1.683 1.219-.988 2.991-10.62-8.02 1.151-3.487 13.308-.115-.988 2.991zm-5.838 2.753l.926-2.803-4.856-.049 3.93 2.852zm-4.801-10.717l.904-2.734 11.964 3.952-.904 2.735-11.964-3.953zm3.785-11.456l.903-2.734 11.964 3.952-.677 2.051-8.02 2.469 6.495 2.146-.903 2.734-11.964-3.952.677-2.051 8.02-2.47-6.495-2.145zm96.504 403.929c43.512-31.72 76.802-76.619 94-128.829l-247-81.41 153 210.239z" fill="#FCFCFD"/><path d="M389.143 368.434c.998.729 1.608 1.635 1.828 2.717.237 1.079-.038 2.157-.823 3.232-.779 1.066-1.746 1.638-2.902 1.715-1.156.077-2.252-.263-3.289-1.02-.843-.616-1.454-1.337-1.831-2.162-.371-.836-.441-1.726-.211-2.673l2.856.303c-.272.901.009 1.656.842 2.264.455.333.877.478 1.266.434.388-.043.702-.23.943-.559.241-.33.327-.682.26-1.058s-.314-.72-.74-1.031l-3.184-2.325 4.689-5.536 5.888 4.3-1.593 2.18-3.706-2.707-1.121 1.321.828.605zm8.135 6.632c-.821.128-1.591-.07-2.308-.593-.717-.524-1.145-1.2-1.282-2.029a2.968 2.968 0 01.557-2.29c.503-.688 1.17-1.092 2.001-1.213.839-.131 1.616.066 2.333.589.718.524 1.14 1.197 1.268 2.018.145.819-.041 1.583-.557 2.29a2.966 2.966 0 01-2.012 1.228zm-6.433 2.278l11.878-2.469.556 1.253-11.889 2.484-.545-1.268zm4.949-5.19a.893.893 0 00.382.636c.223.163.464.22.723.171a.994.994 0 00.646-.397c.17-.232.235-.474.196-.726a.918.918 0 00-.397-.647.9.9 0 00-.722-.17.987.987 0 00-.632.407.988.988 0 00-.196.726zm2.576 12.313c-.822.128-1.591-.07-2.308-.593-.717-.524-1.145-1.2-1.283-2.029a2.973 2.973 0 01.558-2.29c.503-.688 1.17-1.092 2.001-1.213.838-.131 1.616.066 2.333.589.717.524 1.136 1.202 1.257 2.033.138.829-.044 1.587-.547 2.275a2.967 2.967 0 01-2.011 1.228zm-1.485-2.912c.033.262.16.474.383.636.223.163.464.22.722.171a.994.994 0 00.647-.397c.17-.233.235-.475.196-.726a.921.921 0 00-.397-.647.904.904 0 00-.722-.171.99.99 0 00-.633.408.993.993 0 00-.196.726zm16.481 12.66c-1.771.267-3.392-.137-4.865-1.213-1.473-1.075-2.352-2.497-2.636-4.265-.284-1.768.119-3.398 1.209-4.89 1.09-1.492 2.52-2.372 4.29-2.64 1.77-.267 3.392.137 4.865 1.213 1.473 1.076 2.352 2.498 2.636 4.265.284 1.768-.119 3.398-1.209 4.89-1.09 1.493-2.52 2.373-4.29 2.64zm-4.716-5.873c.161.979.664 1.777 1.507 2.393.843.616 1.751.848 2.723.696.982-.145 1.799-.663 2.45-1.554.651-.892.896-1.827.735-2.807-.152-.972-.649-1.767-1.492-2.382-.843-.616-1.756-.852-2.738-.707-.973.151-1.784.673-2.436 1.565-.651.891-.9 1.823-.749 2.796zm18.574 5.852l-3.852-2.813-1.433 1.963 3.779 2.76-1.635 2.238-3.779-2.76-2.728 3.736-2.326-1.699 7.431-10.175 6.178 4.512-1.635 2.238zm7.552 5.516l-3.852-2.813-1.433 1.962 3.779 2.76-1.635 2.239-3.779-2.76-2.728 3.735-2.326-1.698 7.431-10.176 6.178 4.512-1.635 2.239z" fill="#2A313D"/><path d="M279.093 291v260c57.192 0 110.071-18.466 153-49.761L279.093 291z" fill="#673AB7"/><path d="M324.125 411.651l.791 2.393-11.964 3.953-.904-2.735 9.076-2.998-1.281-1.927 2.121-1.441 2.161 2.755zm-6.365 16.024c-1.41-.482-2.367-1.487-2.872-3.014-.504-1.526-.336-2.909.506-4.148.858-1.231 2.226-2.157 4.106-2.778s3.525-.691 4.936-.209c1.425.49 2.39 1.498 2.895 3.025.504 1.527.328 2.906-.529 4.137-.842 1.238-2.203 2.168-4.083 2.789-1.88.621-3.533.687-4.959.198zm2.644-7.205c-2.37.783-3.32 1.886-2.85 3.311.471 1.424 1.891 1.745 4.261.962 2.37-.783 3.32-1.887 2.849-3.311-.47-1.425-1.89-1.745-4.26-.962zm5.524 12.532c-.743-.374-1.254-.983-1.532-1.826-.279-.843-.233-1.642.137-2.396a2.968 2.968 0 011.786-1.538c.809-.267 1.586-.208 2.333.177.758.382 1.276.994 1.555 1.838.278.843.231 1.636-.143 2.378-.359.751-.954 1.263-1.786 1.538a2.969 2.969 0 01-2.35-.171zm-6.558-1.89l11.097 4.902-.276 1.342-11.115-4.896.294-1.348zm7.044-1.342a.903.903 0 00-.059.74c.087.262.25.448.488.559a.996.996 0 00.757.053c.274-.09.468-.249.582-.476a.92.92 0 00.054-.757.897.897 0 00-.489-.559.989.989 0 00-.751-.037.992.992 0 00-.582.477zm-5.068 11.513c-.743-.374-1.253-.982-1.532-1.826-.279-.843-.233-1.641.137-2.396a2.966 2.966 0 011.786-1.537c.809-.268 1.587-.209 2.333.177.758.381 1.277.993 1.555 1.837.279.843.225 1.638-.16 2.384-.37.754-.96 1.265-1.769 1.532a2.965 2.965 0 01-2.35-.171zm.487-3.232a.895.895 0 00-.059.74.896.896 0 00.488.559.996.996 0 00.757.053c.273-.09.467-.249.582-.476a.92.92 0 00.053-.757.896.896 0 00-.488-.559.985.985 0 00-.751-.036.987.987 0 00-.582.476zm6.038 19.885c-1.595-.813-2.679-2.085-3.251-3.817-.572-1.732-.46-3.399.338-5.002.797-1.603 2.073-2.695 3.828-3.274 1.754-.58 3.43-.464 5.025.349 1.595.812 2.679 2.085 3.251 3.817.572 1.732.46 3.399-.338 5.002-.797 1.603-2.073 2.695-3.828 3.274-1.754.58-3.43.463-5.025-.349zm-.418-7.52c-.439.89-.494 1.831-.167 2.822.327.992.931 1.709 1.81 2.151.883.454 1.849.508 2.897.162 1.048-.347 1.792-.965 2.23-1.856.443-.879.501-1.814.173-2.806-.327-.991-.933-1.713-1.816-2.167-.879-.443-1.843-.491-2.891-.145-1.048.347-1.794.959-2.236 1.839zm11.702 15.566l-1.497-4.529-2.307.762 1.468 4.444-2.632.869-1.468-4.443-4.393 1.451-.903-2.735 11.964-3.952 2.4 7.264-2.632.869zm2.933 8.88l-1.496-4.53-2.308.763 1.468 4.443-2.632.87-1.468-4.444-4.392 1.451-.904-2.734 11.964-3.953 2.4 7.264-2.632.87zM19.093 291c0 28.433 4.564 55.801 13 81.41l247-81.41-247-81.411c-8.436 25.609-13 52.977-13 81.411z" fill="#FCFCFD"/><path d="M143.343 292.488c-.804-.276-1.452-.726-1.944-1.35-.492-.612-.738-1.338-.738-2.178 0-1.32.444-2.352 1.332-3.096.888-.744 1.974-1.116 3.258-1.116.996 0 1.89.228 2.682.684.78.456 1.356 1.128 1.728 2.016l-2.484 1.44c-.312-.888-.954-1.332-1.926-1.332-.564 0-.99.132-1.278.396-.288.264-.432.6-.432 1.008 0 .408.144.744.432 1.008.288.264.714.396 1.278.396h.594l1.098 1.638-2.286 2.898h4.608v2.7h-8.1v-2.34l2.178-2.772zm-8.74.126c.588-.588 1.326-.882 2.214-.882.888 0 1.632.294 2.232.882.6.6.9 1.326.9 2.178 0 .852-.3 1.572-.9 2.16-.6.6-1.344.9-2.232.9-.888 0-1.626-.294-2.214-.882-.6-.576-.9-1.302-.9-2.178 0-.852.3-1.578.9-2.178zm3.852-5.634l-8.136 9-1.188-.684 8.136-9.018 1.188.702zm-.936 7.11a.897.897 0 00-.684-.288.897.897 0 00-.684.288.995.995 0 00-.288.702c0 .288.09.522.27.702.18.192.414.288.702.288a.897.897 0 00.684-.288.989.989 0 00.27-.702c0-.276-.09-.51-.27-.702zm-9.342-8.424c.588-.588 1.326-.882 2.214-.882.888 0 1.632.294 2.232.882.6.6.9 1.326.9 2.178 0 .852-.3 1.572-.9 2.16-.6.6-1.344.9-2.232.9-.888 0-1.626-.3-2.214-.9-.6-.588-.9-1.308-.9-2.16 0-.852.3-1.578.9-2.178zm2.916 1.476a.897.897 0 00-.684-.288.897.897 0 00-.684.288.995.995 0 00-.288.702c0 .288.09.522.27.702.18.192.414.288.702.288a.897.897 0 00.684-.288.989.989 0 00.27-.702c0-.276-.09-.51-.27-.702zm-20.775-.504c1.272-1.26 2.82-1.89 4.644-1.89 1.824 0 3.372.63 4.644 1.89 1.272 1.26 1.908 2.814 1.908 4.662 0 1.848-.636 3.402-1.908 4.662-1.272 1.26-2.82 1.89-4.644 1.89-1.824 0-3.372-.63-4.644-1.89-1.272-1.26-1.908-2.814-1.908-4.662 0-1.848.636-3.402 1.908-4.662zm7.272 1.962c-.708-.696-1.584-1.044-2.628-1.044s-1.914.348-2.61 1.044c-.708.696-1.062 1.596-1.062 2.7s.354 2.004 1.062 2.7c.696.696 1.566 1.044 2.61 1.044 1.044 0 1.92-.348 2.628-1.044.696-.696 1.044-1.596 1.044-2.7s-.348-2.004-1.044-2.7zm-18.452 6.228h4.77v-2.43h-4.68v-2.772h4.68V285h2.88v12.6h-7.65v-2.772zm-9.351 0h4.77v-2.43h-4.68v-2.772h4.68V285h2.88v12.6h-7.65v-2.772z" fill="#2A313D"/><path d="M126.093 501.239c-43.512-31.72-76.802-76.619-94-128.829l247-81.41-153 210.239z" fill="#673AB7"/><path d="M180.8 367.439l3.852-2.813-1.433-1.963-3.779 2.76-1.635-2.238 3.779-2.76-2.728-3.736 2.326-1.699 7.431 10.176-6.178 4.512-1.635-2.239zm-12.519-3.027l4.36 1.942 1.105-.806-2.442-3.344 2.326-1.698 7.431 10.175-4.07 2.973c-.969.707-2.041.97-3.214.787-1.174-.183-2.115-.759-2.823-1.728a3.845 3.845 0 01-.74-2.112 4.34 4.34 0 01.46-2.209l-4.894-2.154 2.501-1.826zm8.862 5.787l-1.911-2.616-1.744 1.274c-.32.233-.5.557-.538.972-.049.422.061.817.33 1.185.269.368.612.594 1.028.676.407.089.771.017 1.09-.217l1.745-1.274zm-13.147.775l-4.07 2.973-1.635-2.239 6.396-4.671 7.431 10.175-6.323 4.618-1.635-2.238 3.997-2.92-1.231-1.686-3.634 2.654-1.614-2.209 3.634-2.654-1.316-1.803zm-7.708 5.629l-4.071 2.973-1.634-2.239 6.395-4.671 7.432 10.176-6.324 4.618-1.634-2.239 3.997-2.919-1.231-1.687-3.634 2.654-1.614-2.209 3.634-2.654-1.316-1.803zm-10.053 19.512l-1.634-2.239 2.616-1.911-5.796-7.937 2.326-1.698 5.796 7.937 2.616-1.911 1.635 2.238-7.559 5.521zm-9.14-5.495l-4.07 2.972-1.635-2.238 6.396-4.671 7.431 10.175-6.323 4.618-1.635-2.239 3.998-2.919-1.232-1.686-3.634 2.654-1.613-2.21 3.634-2.654-1.317-1.802zm-10.727 4.089c1.037-.757 2.067-1.167 3.09-1.231a4.622 4.622 0 012.817.774l-1.157 2.628c-1.094-.643-2.149-.593-3.167.15-.92.673-1.179 1.285-.775 1.837.219.301.539.424.96.369.418-.038 1.115-.243 2.092-.614.511-.195.98-.337 1.406-.425a6.317 6.317 0 011.359-.123c.477.023.929.153 1.356.391.417.246.795.601 1.135 1.066.686.94.9 1.935.642 2.986-.268 1.057-.867 1.926-1.797 2.605-.833.609-1.715.948-2.645 1.018-.922.079-1.84-.12-2.754-.597l1.124-2.582c.467.254.907.378 1.32.374.42.005.853-.155 1.299-.481.349-.254.563-.53.644-.827.078-.28.039-.526-.117-.739-.184-.252-.459-.385-.826-.4-.377-.007-1.02.151-1.929.473-.499.171-.888.299-1.167.384-.28.086-.657.16-1.13.224-.476.08-.876.082-1.199.006-.326-.059-.677-.204-1.053-.435-.379-.213-.721-.528-1.025-.945-.708-.969-.918-1.99-.631-3.061.295-1.062 1.004-2.004 2.128-2.825zm-3.825 18.708l-1.635-2.238 2.617-1.911-5.797-7.937 2.326-1.698 5.797 7.936 2.616-1.911 1.635 2.239-7.559 5.52zm-6.086-5.585l3.09 3.315 2.123 2.908-2.616 1.911-2.123-2.908-2.218-3.952 1.744-1.274zm-4.351-2.082c.073-.47.298-.843.676-1.119a1.646 1.646 0 011.271-.304c.47.073.843.299 1.119.677.276.378.377.801.304 1.271a1.646 1.646 0 01-.677 1.118 1.641 1.641 0 01-1.271.304 1.644 1.644 0 01-1.118-.676 1.642 1.642 0 01-.304-1.271zM279.093 291v260c-57.192 0-110.071-18.466-153-49.761l153-210.239z" fill="#FCFCFD"/><path d="M245.824 416.2l-.79 2.393-11.964-3.952.903-2.735 9.076 2.998.119-2.311 2.562.107.094 3.5zm-7.001 7.077c-.388 1.174-1.063 2.031-2.025 2.573-.955.556-2.065.626-3.329.208-1.254-.414-2.094-1.16-2.522-2.236-.428-1.077-.441-2.225-.038-3.444.327-.991.826-1.793 1.496-2.406.682-.609 1.508-.949 2.479-1.02l.588 2.811c-.941.017-1.573.516-1.897 1.496-.177.536-.185.981-.025 1.338.161.356.435.598.822.726.387.128.75.102 1.087-.077.337-.179.589-.519.754-1.021l1.237-3.743 6.707 2.766-2.287 6.922-2.564-.847 1.44-4.358-1.601-.662-.322.974zm-3.817 9.777c-.374-.743-.422-1.536-.143-2.379.278-.843.791-1.457 1.537-1.843a2.971 2.971 0 012.351-.171c.809.267 1.398.778 1.768 1.532.382.758.433 1.559.155 2.402-.279.843-.79 1.451-1.532 1.825-.735.389-1.519.446-2.351.172a2.966 2.966 0 01-1.785-1.538zm-4.142-5.425l5.994 10.549-1.022.913-6.011-10.554 1.039-.908zm6.458 3.119a.896.896 0 00-.488.559.895.895 0 00.059.74.994.994 0 00.576.494c.273.09.524.078.751-.036a.92.92 0 00.494-.577.897.897 0 00-.059-.739.985.985 0 00-.582-.477.984.984 0 00-.751.036zm-10.93 6.228c-.373-.743-.421-1.536-.143-2.379.279-.843.792-1.457 1.538-1.843a2.969 2.969 0 012.35-.171c.809.267 1.399.778 1.769 1.532.382.758.433 1.559.155 2.402-.279.843-.795 1.45-1.549 1.82-.747.385-1.525.444-2.334.177a2.968 2.968 0 01-1.786-1.538zm2.317-2.306a.896.896 0 00-.488.559.895.895 0 00.059.74.99.99 0 00.576.494c.273.09.524.078.751-.036a.922.922 0 00.494-.576.899.899 0 00-.059-.74.992.992 0 00-.582-.477.994.994 0 00-.751.036zm-6.996 19.569c-.797-1.603-.91-3.271-.338-5.003.573-1.732 1.656-3.004 3.252-3.816 1.595-.813 3.27-.929 5.025-.35 1.755.58 3.031 1.671 3.828 3.274.798 1.603.91 3.271.338 5.003-.572 1.732-1.656 3.004-3.251 3.817-1.596.812-3.271.929-5.026.349-1.754-.58-3.03-1.671-3.828-3.274zm4.144-6.29c-.883.454-1.488 1.177-1.815 2.168-.328.991-.27 1.927.172 2.806.439.891 1.183 1.509 2.231 1.855 1.048.347 2.014.293 2.897-.161.879-.443 1.482-1.16 1.81-2.151.327-.991.272-1.932-.167-2.823-.443-.879-1.188-1.492-2.236-1.838-1.049-.346-2.012-.298-2.892.144zm.126 19.474l1.496-4.529-2.307-.762-1.468 4.443-2.632-.869 1.468-4.444-4.393-1.451.904-2.735 11.964 3.953-2.4 7.264-2.632-.87zm-2.933 8.88l1.496-4.529-2.308-.763-1.468 4.444-2.632-.869 1.468-4.444-4.392-1.451.903-2.735 11.964 3.952-2.399 7.264-2.632-.869z" fill="#2A313D"/><path d="M126.093 80.761c-43.512 31.72-76.802 76.619-94 128.829l247 81.41-153-210.239z" fill="#673AB7"/><path d="M169.361 213.426c-.999-.729-1.608-1.635-1.828-2.717-.237-1.079.038-2.157.823-3.232.779-1.066 1.746-1.638 2.902-1.715 1.156-.077 2.252.263 3.289 1.02.843.616 1.453 1.337 1.831 2.162.371.836.441 1.726.211 2.673l-2.856-.302c.272-.902-.009-1.656-.842-2.265-.456-.333-.877-.477-1.266-.434-.388.043-.702.23-.943.559-.241.33-.327.682-.26 1.058s.314.72.74 1.031l3.184 2.325-4.69 5.536-5.887-4.299 1.593-2.181 3.706 2.707 1.121-1.321-.828-.605zm-8.135-6.632c.821-.128 1.591.07 2.308.593.717.524 1.144 1.2 1.282 2.029a2.965 2.965 0 01-.558 2.29c-.502.688-1.169 1.092-2 1.213-.839.131-1.616-.066-2.334-.589-.717-.524-1.139-1.197-1.267-2.018-.145-.819.041-1.583.557-2.29a2.97 2.97 0 012.012-1.228zm6.433-2.278l-11.878 2.47-.556-1.253 11.889-2.485.545 1.268zm-4.949 5.19a.896.896 0 00-.382-.636.897.897 0 00-.723-.171.992.992 0 00-.646.397c-.17.233-.235.475-.196.726a.918.918 0 00.397.647.903.903 0 00.722.171.988.988 0 00.632-.408.988.988 0 00.196-.726zm-2.576-12.313c.822-.128 1.591.07 2.308.594.717.523 1.145 1.2 1.282 2.028a2.967 2.967 0 01-.557 2.29c-.503.688-1.17 1.092-2.001 1.213-.838.131-1.616-.065-2.333-.589-.717-.524-1.136-1.201-1.257-2.033-.138-.828.044-1.587.547-2.275a2.967 2.967 0 012.011-1.228zm1.484 2.912a.897.897 0 00-.382-.636.896.896 0 00-.722-.171.998.998 0 00-.647.397c-.17.233-.235.475-.196.726a.921.921 0 00.397.647c.223.163.464.22.722.171a.986.986 0 00.632-.408.984.984 0 00.196-.726zm-16.48-12.66c1.771-.267 3.392.137 4.865 1.213 1.473 1.075 2.352 2.497 2.636 4.265.284 1.768-.119 3.398-1.209 4.89-1.09 1.492-2.52 2.372-4.29 2.64-1.77.267-3.392-.137-4.865-1.213-1.473-1.076-2.352-2.497-2.636-4.265-.284-1.768.119-3.398 1.209-4.89 1.09-1.493 2.52-2.373 4.29-2.64zm4.716 5.873c-.162-.979-.664-1.777-1.507-2.393-.843-.615-1.751-.847-2.723-.696-.983.145-1.799.663-2.45 1.554-.651.892-.896 1.827-.735 2.807.151.973.649 1.767 1.492 2.382.843.616 1.756.852 2.738.707.972-.151 1.784-.673 2.435-1.564.652-.892.901-1.824.75-2.797zm-18.574-5.852l3.852 2.813 1.433-1.963-3.779-2.76 1.634-2.238 3.78 2.76 2.728-3.736 2.326 1.699-7.431 10.175-6.178-4.512 1.635-2.238zm-7.552-5.516l3.852 2.814 1.433-1.963-3.779-2.76 1.634-2.239 3.78 2.761 2.728-3.736 2.326 1.698-7.431 10.176-6.178-4.512 1.635-2.239zM279.093 291V31c-57.192 0-110.071 18.466-153 49.761l153 210.239z" fill="#FCFCFD"/><path d="M234.576 170.197l-.791-2.393 11.964-3.952.904 2.734-9.076 2.998 1.281 1.928-2.121 1.44-2.161-2.755zm6.365-16.023c1.41.482 2.368 1.486 2.872 3.013s.336 2.909-.506 4.148c-.857 1.231-2.226 2.157-4.106 2.778s-3.525.691-4.936.209c-1.425-.49-2.39-1.498-2.895-3.025-.504-1.527-.328-2.905.529-4.136.842-1.239 2.203-2.169 4.084-2.79 1.88-.621 3.532-.687 4.958-.197zm-2.643 7.205c2.37-.783 3.319-1.887 2.849-3.311-.471-1.425-1.891-1.745-4.261-.962-2.37.783-3.32 1.886-2.849 3.311.47 1.424 1.89 1.744 4.261.962zm-5.524-12.533c.742.374 1.253.983 1.532 1.826.278.843.232 1.642-.138 2.396a2.965 2.965 0 01-1.786 1.538c-.809.267-1.586.208-2.333-.177-.758-.382-1.276-.994-1.555-1.837-.278-.843-.23-1.636.143-2.379.359-.751.954-1.263 1.786-1.538a2.971 2.971 0 012.351.171zm6.558 1.891l-11.098-4.902.276-1.343 11.115 4.896-.293 1.349zm-7.045 1.341a.9.9 0 00.059-.74.901.901 0 00-.488-.559.996.996 0 00-.757-.053c-.274.09-.468.249-.582.477a.915.915 0 00-.053.757.896.896 0 00.488.559c.238.11.489.122.751.036a.992.992 0 00.582-.477zm5.068-11.513c.743.374 1.254.983 1.532 1.826.279.843.233 1.642-.137 2.396a2.971 2.971 0 01-1.786 1.538c-.809.267-1.587.208-2.333-.177-.758-.382-1.276-.994-1.555-1.837-.279-.844-.225-1.638.16-2.385.37-.754.96-1.265 1.769-1.532a2.969 2.969 0 012.35.171zm-.487 3.232a.895.895 0 00.059-.74.896.896 0 00-.488-.559.996.996 0 00-.757-.053c-.273.09-.467.249-.582.476a.923.923 0 00-.053.757.9.9 0 00.488.56c.239.11.489.122.751.036a.986.986 0 00.582-.477zm-6.038-19.885c1.595.813 2.679 2.085 3.251 3.817.573 1.732.46 3.4-.337 5.003-.798 1.603-2.074 2.694-3.829 3.274-1.754.579-3.429.463-5.025-.35-1.595-.812-2.679-2.084-3.251-3.816-.572-1.732-.46-3.4.338-5.003.797-1.603 2.073-2.694 3.828-3.274 1.755-.58 3.43-.463 5.025.349zm.418 7.521c.439-.891.495-1.832.167-2.823-.327-.991-.931-1.708-1.81-2.151-.883-.454-1.848-.508-2.897-.161-1.048.346-1.792.964-2.23 1.855-.443.879-.5 1.814-.173 2.806.328.991.933 1.714 1.816 2.168.879.442 1.843.49 2.891.144s1.794-.959 2.236-1.838zm-11.701-15.567l1.496 4.529 2.307-.762-1.468-4.444 2.632-.869 1.468 4.444 4.393-1.452.903 2.735L219.314 124l-2.4-7.264 2.633-.87zm-2.934-8.879l1.496 4.529 2.308-.762-1.468-4.444 2.632-.87 1.468 4.444 4.392-1.451.904 2.735-11.964 3.952-2.4-7.264 2.632-.869z" fill="#2A313D"/><g filter="url(#filter0_d)"><path fill-rule="evenodd" clip-rule="evenodd" d="M279.093 39c-139.176 0-252 112.824-252 252s112.824 252 252 252 252-112.824 252-252-112.824-252-252-252zm-268 252c0-148.012 119.988-268 268-268s268 119.988 268 268-119.988 268-268 268-268-119.988-268-268z" fill="#FCFCFD"/></g><g filter="url(#filter1_d)"><circle cx="279.093" cy="291" r="60" fill="#FCFCFD"/></g><circle cx="279.093" cy="31" r="5" fill="#673AB7"/><circle cx="279.093" cy="551" r="5" fill="#673AB7"/><circle cx="32.219" cy="372.568" r="5" transform="rotate(-108.284 32.22 372.568)" fill="#673AB7"/><circle cx="525.967" cy="209.432" r="5" transform="rotate(-108.284 525.967 209.432)" fill="#673AB7"/><circle r="5" transform="scale(1 -1) rotate(71.716 520.721 177.573)" fill="#673AB7"/><circle r="5" transform="scale(1 -1) rotate(71.716 160.992 -82.427)" fill="#673AB7"/><circle r="5" transform="scale(-1 1) rotate(-35.997 -91.837 705.024)" fill="#673AB7"/><circle r="5" transform="scale(-1 1) rotate(-35.997 708.443 445.025)" fill="#673AB7"/><circle cx="126.282" cy="80.646" r="5" transform="rotate(-35.996 126.282 80.646)" fill="#673AB7"/><circle cx="431.904" cy="501.354" r="5" transform="rotate(-35.996 431.904 501.354)" fill="#673AB7"/><defs><filter id="filter0_d" x="11.093" y="23" width="536" height="543" filterUnits="userSpaceOnUse" color-interpolation-filters="sRGB"><feFlood flood-opacity="0" result="BackgroundImageFix"/><feColorMatrix in="SourceAlpha" values="0 0 0 0 0 0 0 0 0 0 0 0 0 0 0 0 0 0 127 0"/><feOffset dy="7"/><feColorMatrix values="0 0 0 0 0.164706 0 0 0 0 0.192157 0 0 0 0 0.239216 0 0 0 0.15 0"/><feBlend in2="BackgroundImageFix" result="effect1_dropShadow"/><feBlend in="SourceGraphic" in2="effect1_dropShadow" result="shape"/></filter><filter id="filter1_d" x="219.093" y="231" width="120" height="127" filterUnits="userSpaceOnUse" color-interpolation-filters="sRGB"><feFlood flood-opacity="0" result="BackgroundImageFix"/><feColorMatrix in="SourceAlpha" values="0 0 0 0 0 0 0 0 0 0 0 0 0 0 0 0 0 0 127 0"/><feOffset dy="7"/><feColorMatrix values="0 0 0 0 0.164706 0 0 0 0 0.192157 0 0 0 0 0.239216 0 0 0 0.15 0"/><feBlend in2="BackgroundImageFix" result="effect1_dropShadow"/><feBlend in="SourceGraphic" in2="effect1_dropShadow" result="shape"/></filter></defs></svg>