<svg width="32" height="29" viewBox="0 0 32 29" fill="none" xmlns="http://www.w3.org/2000/svg"><g clip-path="url(#clip0)" fill="#07B53B"><path d="M15.664 29C7.51 29 .874 22.496.874 14.5.875 6.506 7.51 0 15.665 0c3.243 0 6.34 1.025 8.955 2.966a1.147 1.147 0 11-1.367 1.843 12.65 12.65 0 00-7.588-2.514C8.774 2.295 3.17 7.77 3.17 14.5s5.605 12.205 12.494 12.205c6.89 0 12.495-5.475 12.495-12.205 0-.942-.105-1.859-.311-2.724a1.148 1.148 0 012.232-.533c.248 1.04.374 2.136.374 3.258 0 7.995-6.635 14.499-14.79 14.499z"/><path d="M15.375 21.453c-.304 0-.596-.12-.812-.336l-7.839-7.838a1.147 1.147 0 111.623-1.623l6.98 6.98L29.03 3.286a1.147 1.147 0 011.712 1.53L16.231 21.068c-.21.236-.509.375-.824.383h-.032z"/></g><defs><clipPath id="clip0"><path fill="#fff" transform="translate(.875)" d="M0 0h30.158v29H0z"/></clipPath></defs></svg>