<svg width="20" height="20" viewBox="0 0 20 20" fill="none" xmlns="http://www.w3.org/2000/svg"><path fill-rule="evenodd" clip-rule="evenodd" d="M15.993 4.008a3.477 3.477 0 00-4.917 0L9.22 5.863a1.113 1.113 0 01-1.573-1.574l1.854-1.854a5.703 5.703 0 118.065 8.064l-1.855 1.855a5.703 5.703 0 01-8.955-1.151 1.113 1.113 0 011.92-1.126 3.477 3.477 0 005.461.703l1.855-1.854a3.477 3.477 0 000-4.918zM10.43 9.572a3.477 3.477 0 00-4.917 0l-1.855 1.855a3.477 3.477 0 104.918 4.917l1.854-1.854a1.113 1.113 0 111.574 1.573l-1.854 1.855a5.703 5.703 0 11-8.065-8.065L3.938 8a5.703 5.703 0 018.955 1.151 1.113 1.113 0 11-1.92 1.125 3.484 3.484 0 00-.544-.703z" fill="#424669"/></svg>