<svg width="19" height="16" viewBox="0 0 19 16" fill="none" xmlns="http://www.w3.org/2000/svg"><path d="M17.964 2.583a7.184 7.184 0 01-1.206.393c.456-.422.797-.947.993-1.534.055-.17-.132-.315-.29-.224a7.15 7.15 0 01-1.84.74.489.489 0 01-.439-.108A3.83 3.83 0 0012.69.942c-.397 0-.801.062-1.193.178-1.219.368-2.164 1.349-2.458 2.552a3.812 3.812 0 00-.09 1.349.132.132 0 01-.034.103.138.138 0 01-.102.046H8.8c-2.675-.24-5.087-1.494-6.79-3.525a.201.201 0 00-.324.025 3.582 3.582 0 00.613 4.447 3.593 3.593 0 01-.86-.323.199.199 0 00-.294.166c-.018 1.472.869 2.783 2.198 3.375h-.081c-.213 0-.426-.02-.635-.058a.196.196 0 00-.226.248c.43 1.312 1.594 2.275 2.982 2.495a7.096 7.096 0 01-3.893 1.15h-.435a.286.286 0 00-.281.21.283.283 0 00.145.319c1.576.89 3.37 1.36 5.197 1.36 1.598 0 3.089-.305 4.44-.913a9.83 9.83 0 003.25-2.362 10.31 10.31 0 001.99-3.235 9.931 9.931 0 00.677-3.54v-.054c0-.187.09-.364.238-.484a7.313 7.313 0 001.5-1.597.198.198 0 00-.247-.29z" fill="#424669"/></svg>